<svg xmlns="http://www.w3.org/2000/svg" xmlns:xlink="http://www.w3.org/1999/xlink" version="1.1" x="0px" y="0px" viewBox="-5.0 -10.0 110.0 135.0" enable-background="new 0 0 100 100" xml:space="preserve"><g><path d="M50,100C22.43,100,0.001,77.57,0.001,50C0.001,22.43,22.43,0,50,0s49.999,22.43,49.999,50C99.999,77.57,77.57,100,50,100z    M50,3.399C24.305,3.399,3.399,24.304,3.399,50c0,25.696,20.905,46.602,46.601,46.602S96.601,75.696,96.601,50   C96.601,24.304,75.695,3.399,50,3.399z"/><path d="M50,82.063c-17.679,0-32.063-14.384-32.063-32.063c0-17.679,14.384-32.062,32.063-32.062S82.063,32.321,82.063,50   C82.063,67.679,67.679,82.063,50,82.063z M50,21.337c-15.805,0-28.663,12.858-28.663,28.663c0,15.805,12.858,28.663,28.663,28.663   S78.663,65.805,78.663,50C78.663,34.195,65.805,21.337,50,21.337z"/><path d="M55.53,99.626c-0.938,0-1.699-0.761-1.699-1.7V80.531c0-0.938,0.761-1.699,1.699-1.699s1.699,0.761,1.699,1.699v17.395   C57.229,98.865,56.469,99.626,55.53,99.626z"/><path d="M55.53,21.166c-0.938,0-1.699-0.761-1.699-1.7V2.12c0-0.938,0.761-1.699,1.699-1.699s1.699,0.761,1.699,1.699v17.346   C57.229,20.405,56.469,21.166,55.53,21.166z"/><path d="M43.11,21.452c-0.938,0-1.699-0.761-1.699-1.699V2.12c0-0.938,0.761-1.699,1.699-1.699S44.81,1.182,44.81,2.12v17.633   C44.81,20.691,44.049,21.452,43.11,21.452z"/><path d="M43.11,99.626c-0.938,0-1.699-0.761-1.699-1.7V80.248c0-0.938,0.761-1.699,1.699-1.699s1.699,0.761,1.699,1.699v17.678   C44.81,98.865,44.049,99.626,43.11,99.626z"/><path d="M97.235,45.586c-0.001,0-0.002,0-0.003,0l-17.395-0.035c-0.939-0.002-1.698-0.764-1.696-1.703   c0.002-0.937,0.763-1.696,1.699-1.696c0.001,0,0.002,0,0.003,0l17.396,0.035c0.938,0.002,1.698,0.764,1.696,1.703   C98.934,44.828,98.173,45.586,97.235,45.586z"/><path d="M19.455,45.428c-0.001,0-0.002,0-0.003,0L2.106,45.393c-0.938-0.002-1.698-0.764-1.696-1.703   c0.002-0.937,0.763-1.696,1.699-1.696c0.001,0,0.003,0,0.004,0l17.346,0.035c0.938,0.002,1.698,0.764,1.696,1.703   C21.153,44.669,20.393,45.428,19.455,45.428z"/><path d="M19.717,57.849c-0.001,0-0.002,0-0.003,0L2.081,57.813c-0.938-0.002-1.698-0.764-1.696-1.703   c0.002-0.937,0.763-1.695,1.7-1.695c0.001,0,0.002,0,0.003,0l17.633,0.035c0.938,0.002,1.698,0.765,1.695,1.703   C21.414,57.09,20.654,57.849,19.717,57.849z"/><path d="M97.211,58.007c-0.002,0-0.002,0-0.004,0l-17.678-0.036c-0.939-0.002-1.698-0.765-1.696-1.703   c0.002-0.938,0.763-1.696,1.699-1.696c0.001,0,0.002,0,0.003,0l17.679,0.036c0.938,0.002,1.698,0.765,1.696,1.703   C98.908,57.248,98.147,58.007,97.211,58.007z"/><path d="M88.664,80.218c-0.411,0-0.824-0.149-1.15-0.45L75.076,68.318c-0.69-0.636-0.734-1.711-0.099-2.401   c0.636-0.688,1.71-0.734,2.401-0.099l12.437,11.449c0.69,0.636,0.735,1.711,0.099,2.401C89.58,80.033,89.122,80.218,88.664,80.218z   "/><path d="M32.44,26.19c-0.427,0-0.854-0.16-1.185-0.481L18.819,13.616c-0.674-0.654-0.688-1.73-0.034-2.403   c0.655-0.673,1.73-0.688,2.403-0.033l12.437,12.093c0.674,0.654,0.688,1.73,0.034,2.403C33.326,26.019,32.884,26.19,32.44,26.19z"/><path d="M23.987,35.295c-0.427,0-0.854-0.16-1.185-0.481L10.159,22.52c-0.673-0.654-0.688-1.73-0.033-2.403   c0.654-0.672,1.73-0.687,2.402-0.033l12.644,12.294c0.674,0.654,0.688,1.73,0.034,2.403C24.873,35.123,24.431,35.295,23.987,35.295   z"/><path d="M78.646,89.157c-0.444,0-0.889-0.174-1.223-0.52L66.143,76.955c-0.652-0.676-0.633-1.751,0.042-2.403   c0.675-0.65,1.751-0.632,2.403,0.042l11.281,11.684c0.652,0.675,0.633,1.751-0.042,2.403   C79.497,88.998,79.071,89.157,78.646,89.157z"/><path d="M11.213,80.29c-0.458,0-0.915-0.185-1.25-0.549c-0.636-0.69-0.592-1.766,0.099-2.401l12.438-11.449   c0.689-0.636,1.765-0.592,2.401,0.099c0.635,0.69,0.591,1.766-0.1,2.401L12.364,79.84C12.037,80.141,11.625,80.29,11.213,80.29z"/><path d="M67.437,26.263c-0.442,0-0.885-0.172-1.218-0.514c-0.654-0.673-0.64-1.749,0.033-2.403l12.437-12.093   c0.673-0.655,1.748-0.64,2.403,0.033c0.654,0.673,0.639,1.749-0.033,2.403L68.621,25.782   C68.291,26.103,67.863,26.263,67.437,26.263z"/><path d="M75.89,35.367c-0.442,0-0.886-0.172-1.218-0.514c-0.654-0.673-0.64-1.75,0.033-2.403l12.644-12.294   c0.673-0.655,1.75-0.64,2.403,0.033c0.654,0.673,0.639,1.749-0.033,2.403L77.074,34.886C76.744,35.208,76.316,35.367,75.89,35.367z   "/><path d="M21.23,89.229c-0.425,0-0.851-0.159-1.181-0.477c-0.675-0.652-0.693-1.729-0.042-2.403L31.29,74.666   c0.651-0.674,1.728-0.694,2.403-0.042c0.675,0.652,0.693,1.728,0.041,2.403L22.453,88.71C22.12,89.056,21.676,89.229,21.23,89.229z   "/></g><text x="0.0" y="117.5" font-size="5.0" font-weight="bold" font-family="Arbeit Regular, Helvetica, Arial-Unicode, Arial, Sans-serif" fill="#000000">Created by Toma by Pontamilo</text><text x="0.0" y="122.5" font-size="5.0" font-weight="bold" font-family="Arbeit Regular, Helvetica, Arial-Unicode, Arial, Sans-serif" fill="#000000">from Noun Project</text></svg>