<svg xmlns="http://www.w3.org/2000/svg" xmlns:xlink="http://www.w3.org/1999/xlink" version="1.1" x="0px" y="0px" viewBox="0 0 496 620" style="enable-background:new 0 0 496 496;" xml:space="preserve"><path d="M309.919,0c-41.495,0-80.755,13.361-113.536,38.64c-30.564,23.569-53.349,56.557-64.525,93.266  C55.619,155.174,0,226.169,0,309.919C0,412.524,83.476,496,186.081,496c83.75,0,154.746-55.62,178.014-131.858  c36.708-11.176,69.697-33.961,93.266-64.525C482.639,266.836,496,227.576,496,186.081C496,83.476,412.524,0,309.919,0z   M479.806,178.081h-37.151c-1.828-30.654-14.085-58.54-33.265-80.157l26.262-26.261  C461.511,100.053,477.904,137.205,479.806,178.081z M317.919,16.194c40.876,1.902,78.028,18.295,106.419,44.155l-26.262,26.261  c-21.617-19.18-49.504-31.437-80.158-33.265V16.194z M301.919,16.196v37.158c-22.729,1.356-44.647,8.461-63.821,20.788  c-5.8,3.729-11.263,7.895-16.377,12.427l-26.217-26.217C224.218,34.291,261.628,18.098,301.919,16.196z M184.168,71.643  l26.226,26.227c-7.021,7.917-13.09,16.668-18.073,26.085c-12.481-1.434-26.571-0.197-42.056,3.356  C157.964,106.4,169.597,87.591,184.168,71.643z M194.081,140.032c40.875,1.902,78.027,18.295,106.418,44.155l-26.261,26.261  c-21.617-19.18-49.504-31.437-80.157-33.265V140.032z M178.081,140.032v37.151c-30.654,1.828-58.54,14.085-80.158,33.265  l-26.262-26.261C100.053,158.328,137.205,141.935,178.081,140.032z M60.348,195.501l26.262,26.261  c-19.181,21.617-31.437,49.504-33.265,80.157H16.194C18.096,261.044,34.489,223.892,60.348,195.501z M16.194,317.919h37.151  c1.828,30.654,14.085,58.54,33.265,80.157l-26.262,26.261C34.489,395.947,18.096,358.795,16.194,317.919z M178.081,479.806  c-40.876-1.902-78.028-18.295-106.419-44.155l26.262-26.261c21.617,19.18,49.504,31.437,80.158,33.265V479.806z M69.097,309.919  c0-64.505,52.479-116.984,116.984-116.984c64.505,0,116.983,52.479,116.983,116.984s-52.479,116.984-116.983,116.984  C121.575,426.903,69.097,374.425,69.097,309.919z M194.081,479.806v-37.151c30.653-1.828,58.54-14.085,80.157-33.265l26.261,26.261  C272.108,461.511,234.956,477.904,194.081,479.806z M311.813,424.338l-26.261-26.261c19.18-21.617,31.437-49.504,33.265-80.157  h37.151C354.065,358.795,337.673,395.947,311.813,424.338z M318.817,301.919c-1.828-30.653-14.085-58.54-33.265-80.157  l26.261-26.261c25.859,28.391,42.252,65.543,44.154,106.418H318.817z M209.927,125.362c21.054-34.513,59.127-56.265,99.992-56.265  c64.506,0,116.984,52.479,116.984,116.984c0,40.866-21.752,78.938-56.265,99.992C359.9,202.498,293.501,136.1,209.927,125.362z   M368.689,345.735c2.554-14.362,3.568-28.356,3.356-42.056c9.417-4.982,18.168-11.051,26.085-18.073l26.227,26.226  C408.409,326.402,389.6,338.036,368.689,345.735z M435.649,300.496l-26.217-26.217c4.532-5.114,8.699-10.577,12.428-16.377  c12.326-19.174,19.431-41.092,20.787-63.821h37.158C477.902,234.372,461.709,271.782,435.649,300.496z"/><text x="0" y="511" fill="#000000" font-size="5px" font-weight="bold" font-family="'Helvetica Neue', Helvetica, Arial-Unicode, Arial, Sans-serif">Created by Amethyst Studio</text><text x="0" y="516" fill="#000000" font-size="5px" font-weight="bold" font-family="'Helvetica Neue', Helvetica, Arial-Unicode, Arial, Sans-serif">from the Noun Project</text></svg>